# xmcd
# 
# Track frame offsets:
#	150
#	12645
#	27717
#	41175
#	56190
#	70540
#	83605
#	96517
#	110615
#	123917
#	136565
#	151130
#	165067
#	177050
#	191467
#
# Disc length: 2760 seconds
#
# Revision: 2
# Processed by: cddbd v1.4PL0 Copyright (c) Steve Scherf et al.
# Submitted via: Audio-CD-Archiv 2.10.446
#
DISCID=bc0ac60f
DTITLE=The Carter Family - Give Me Roses While I Live - 1932-1933 - Complete Victor Recordings
DYEAR=1900
DGENRE=country
TTITLE0=Sweet As The Flowers In Maytime
TTITLE1=Will The Roses Bloom In Heaven
TTITLE2=My Little Home In Tennessee
TTITLE3=The Sun Of The Soul
TTITLE4=If One Won't Another Will
TTITLE5=The Broken Hearted Lover
TTITLE6=Two Sweethearts
TTITLE7=The Winding Stream
TTITLE8=I Wouldn't Mind Dying
TTITLE9=The Spirit Of Love Watches Over Me
TTITLE10=The Church In The Wildwood
TTITLE11=Give Me Roses While I Live
TTITLE12=I Never Will Marry
TTITLE13=On The Sea Of Galilee
TTITLE14=Home By The Sea
EXTD=
EXTT0=
EXTT1=
EXTT2=
EXTT3=
EXTT4=
EXTT5=
EXTT6=
EXTT7=
EXTT8=
EXTT9=
EXTT10=
EXTT11=
EXTT12=
EXTT13=
EXTT14=
PLAYORDER=
